<?xml version="1.0" encoding="utf-8"?>
<!-- Generator: Adobe Illustrator 24.1.2, SVG Export Plug-In . SVG Version: 6.00 Build 0)  -->
<svg version="1.1" id="Layer_1" xmlns="http://www.w3.org/2000/svg" xmlns:xlink="http://www.w3.org/1999/xlink" x="0px" y="0px"
	 viewBox="0 0 871.1 771.3" style="enable-background:new 0 0 871.1 771.3;" xml:space="preserve">
<style type="text/css">
	.st0{fill:none;stroke:#000000;stroke-width:0.7087;stroke-linecap:round;stroke-linejoin:round;stroke-miterlimit:10;}
</style>
<g id="LWPOLYLINE">
	<polygon class="st0" points="347.7,26.3 347.7,15.2 291,15.2 291,26.3 241.4,26.3 241.4,15.2 184.7,15.2 184.7,26.3 135.1,26.3 
		135.1,15.2 78.4,15.2 78.4,26.3 0.4,26.3 0.4,749.1 78.4,749.1 78.4,760.3 135.1,760.3 135.1,749.1 184.7,749.1 184.7,760.3 
		241.4,760.3 241.4,749.1 291,749.1 291,760.3 347.7,760.3 347.7,749.1 523.4,749.1 523.4,760.3 580.1,760.3 580.1,749.1 
		629.7,749.1 629.7,760.3 686.4,760.3 686.4,749.1 736,749.1 736,760.3 792.7,760.3 792.7,749.1 870.7,749.1 870.7,26.3 792.7,26.3 
		792.7,15.2 736,15.2 736,26.3 686.4,26.3 686.4,15.2 629.7,15.2 629.7,26.3 580.1,26.3 580.1,15.2 523.4,15.2 523.4,26.3 	"/>
</g>
</svg>
