<svg id="Layer_1" data-name="Layer 1" xmlns="http://www.w3.org/2000/svg" width="24.82cm" height="31.61cm" viewBox="0 0 703.5 896.08">
  <defs>
    <style>
      .cls-1 {
        fill: #8cc63f;
        stroke: red;
        stroke-linecap: round;
        stroke-linejoin: round;
        stroke-width: 0px;
      }
    </style>
  </defs>
  <g id="LWPOLYLINE">
    <polygon class="cls-1" points="632.63 9.92 604.28 9.92 604.28 0 575.94 0 575.94 9.92 533.42 9.92 533.42 880.16 575.94 880.16 575.94 890.08 604.28 890.08 604.28 880.16 632.63 880.16 632.63 890.08 660.98 890.08 660.98 880.16 703.5 880.16 703.5 596.69 575.94 596.69 575.94 586.77 703.5 586.77 703.5 303.31 575.94 303.31 575.94 293.39 703.5 293.39 703.5 9.92 660.98 9.92 660.98 0 632.63 0 632.63 9.92"/>
  </g>
  <g id="LWPOLYLINE-2" data-name="LWPOLYLINE">
    <polygon class="cls-1" points="454.17 9.92 425.82 9.92 425.82 0 397.48 0 397.48 9.92 354.96 9.92 354.96 880.16 397.48 880.16 397.48 890.08 425.82 890.08 425.82 880.16 454.17 880.16 454.17 890.08 482.51 890.08 482.51 880.16 525.03 880.16 525.03 596.69 397.48 596.69 397.48 586.77 525.03 586.77 525.03 303.31 397.48 303.31 397.48 293.39 525.03 293.39 525.03 9.92 482.51 9.92 482.51 0 454.17 0 454.17 9.92"/>
  </g>
  <g id="LWPOLYLINE-3" data-name="LWPOLYLINE">
    <polygon class="cls-1" points="276.69 15.92 248.34 15.92 248.34 6 220 6 220 15.92 177.48 15.92 177.48 886.16 220 886.16 220 896.08 248.34 896.08 248.34 886.16 276.69 886.16 276.69 896.08 305.04 896.08 305.04 886.16 347.56 886.16 347.56 602.69 220 602.69 220 592.77 347.56 592.77 347.56 309.31 220 309.31 220 299.39 347.56 299.39 347.56 15.92 305.04 15.92 305.04 6 276.69 6 276.69 15.92"/>
  </g>
  <g id="LWPOLYLINE-4" data-name="LWPOLYLINE">
    <polygon class="cls-1" points="99.21 9.92 70.87 9.92 70.87 0 42.52 0 42.52 9.92 0 9.92 0 880.16 42.52 880.16 42.52 890.08 70.87 890.08 70.87 880.16 99.21 880.16 99.21 890.08 127.56 890.08 127.56 880.16 170.08 880.16 170.08 596.69 42.52 596.69 42.52 586.77 170.08 586.77 170.08 303.31 42.52 303.31 42.52 293.39 170.08 293.39 170.08 9.92 127.56 9.92 127.56 0 99.21 0 99.21 9.92"/>
  </g>
</svg>
