<svg id="Layer_1" data-name="Layer 1" xmlns="http://www.w3.org/2000/svg" width="31.61cm" height="12.26cm" viewBox="0 0 896.03 347.54">
  <defs>
    <style>
      .cls-1 {
        fill: #8cc63f;
      }
    </style>
  </defs>
  <g id="LWPOLYLINE-3">
    <polygon class="cls-1" points="880.11 276.68 880.11 248.33 890.03 248.33 890.03 219.99 880.11 219.99 880.11 177.47 9.92 177.47 9.92 219.99 0 219.99 0 248.33 9.92 248.33 9.92 276.68 0 276.68 0 305.02 9.92 305.02 9.92 347.54 293.37 347.54 293.37 219.99 303.29 219.99 303.29 347.54 586.74 347.54 586.74 219.99 596.66 219.99 596.66 347.54 880.11 347.54 880.11 305.02 890.03 305.02 890.03 276.68 880.11 276.68"/>
  </g>
  <g id="LWPOLYLINE-4">
    <polygon class="cls-1" points="886.11 99.2 886.11 70.87 896.03 70.87 896.03 42.52 886.11 42.52 886.11 0 15.92 0 15.92 42.52 6 42.52 6 70.87 15.92 70.87 15.92 99.2 6 99.2 6 127.55 15.92 127.55 15.92 170.07 299.37 170.07 299.37 42.52 309.29 42.52 309.29 170.07 592.74 170.07 592.74 42.52 602.66 42.52 602.66 170.07 886.11 170.07 886.11 127.55 896.03 127.55 896.03 99.2 886.11 99.2"/>
  </g>
</svg>
