<?xml version="1.0" encoding="utf-8"?>
<!-- Generator: Adobe Illustrator 24.1.2, SVG Export Plug-In . SVG Version: 6.00 Build 0)  -->
<svg version="1.1" id="Layer_1" xmlns="http://www.w3.org/2000/svg" xmlns:xlink="http://www.w3.org/1999/xlink" x="0px" y="0px"
	 viewBox="0 0 753.7 1286.1" style="enable-background:new 0 0 753.7 1286.1;" xml:space="preserve">
<style type="text/css">
	.st0{fill:#8CC63F;}
	.st1{fill:none;stroke:#000000;stroke-width:0.7087;stroke-linecap:round;stroke-linejoin:round;stroke-miterlimit:10;}
</style>
<g id="LWPOLYLINE-9">
	<polygon class="st0" points="375.6,817.5 378.8,808.1 405.6,817.2 402.4,826.6 429.3,835.7 432.5,826.3 472.8,839.9 463.5,776.9 
		423.2,763.3 426.4,753.9 461.9,765.9 452.6,702.9 412.3,689.3 415.5,679.9 451,691.9 441.7,628.9 401.4,615.3 404.6,605.9 
		440.1,617.9 430.8,554.9 390.5,541.3 393.7,531.9 429.2,543.9 419.9,480.9 379.6,467.3 382.8,457.9 418.3,469.9 409,406.9 
		368.8,393.3 371.9,383.9 407.4,395.9 398.1,332.9 357.9,319.3 361,309.9 396.5,321.9 387.3,258.9 347,245.3 350.1,235.9 
		385.6,247.9 376.4,184.9 336.1,171.3 339.3,161.9 374.7,173.9 365.5,110.9 325.2,97.3 328.4,87.9 301.5,78.8 298.3,88.2 
		271.5,79.2 274.7,69.8 247.8,60.7 244.6,70.1 204.3,56.5 311.6,785.4 351.9,799 348.7,808.4 	"/>
</g>
<g id="LWPOLYLINE-10">
	<polygon class="st0" points="183.2,761.1 186.4,751.7 213.2,760.8 210,770.2 236.9,779.2 240.1,769.8 280.4,783.4 271.1,720.5 
		230.8,706.9 234,697.5 269.5,709.4 260.2,646.5 219.9,632.9 223.1,623.5 258.6,635.5 249.3,572.5 209,558.9 212.2,549.5 
		247.7,561.5 238.4,498.5 198.1,484.9 201.3,475.5 236.8,487.5 227.5,424.5 187.2,410.9 190.4,401.5 225.9,413.5 216.6,350.5 
		176.4,336.9 179.5,327.5 215,339.5 205.7,276.5 165.5,262.9 168.6,253.5 204.1,265.5 194.9,202.5 154.6,188.9 157.8,179.5 
		193.2,191.5 184,128.5 143.7,114.9 146.9,105.5 182.3,117.5 173.1,54.5 132.8,40.9 136,31.5 109.1,22.4 105.9,31.8 79.1,22.7 
		82.3,13.3 55.4,4.2 52.2,13.6 11.9,0 119.2,729 159.5,742.6 156.3,752 	"/>
</g>
<g id="LWPOLYLINE">
	<rect x="526.4" y="322" class="st1" width="28.3" height="9.9"/>
</g>
<g id="LWPOLYLINE_1_">
	<rect x="583.1" y="322" class="st1" width="28.3" height="9.9"/>
</g>
<g id="LWPOLYLINE_2_">
	<rect x="583.1" y="615.4" class="st1" width="28.3" height="9.9"/>
</g>
<g id="LWPOLYLINE_3_">
	<rect x="658.7" y="667.9" class="st1" width="19" height="56.7"/>
</g>
<g id="LWPOLYLINE_4_">
	<rect x="658.7" y="561.6" class="st1" width="19" height="56.7"/>
</g>
<g id="LWPOLYLINE_5_">
	<rect x="658.7" y="329.1" class="st1" width="19" height="56.7"/>
</g>
<g id="LWPOLYLINE_6_">
	<rect x="526.4" y="615.4" class="st1" width="28.3" height="9.9"/>
</g>
<g id="LWPOLYLINE_7_">
	<rect x="658.7" y="774.2" class="st1" width="19" height="56.7"/>
</g>
<g id="LWPOLYLINE_8_">
	<rect x="658.7" y="222.8" class="st1" width="19" height="56.7"/>
</g>
<g id="LWPOLYLINE_9_">
	<rect x="658.7" y="116.5" class="st1" width="19" height="56.7"/>
</g>
<g id="LWPOLYLINE_10_">
	<polygon class="st1" points="498.1,908.8 540.6,908.8 540.6,918.7 568.9,918.7 568.9,908.8 654,908.8 654,918.7 682.3,918.7 
		682.3,908.8 724.9,908.8 724.9,38.6 682.3,38.6 682.3,28.6 654,28.6 654,38.6 568.9,38.6 568.9,28.6 540.6,28.6 540.6,38.6 
		498.1,38.6 	"/>
</g>
</svg>
