<svg id="Layer_1" data-name="Layer 1" xmlns="http://www.w3.org/2000/svg" width="25.7cm" height="30.63cm" viewBox="0 0 728.51 868.11">
  <defs>
    <style>
      .cls-1 {
        fill: none;
        stroke: #000;
        stroke-linecap: round;
        stroke-linejoin: round;
        stroke-width: 0.71px;
      }
    </style>
  </defs>
  <g id="LWPOLYLINE">
    <rect class="cls-1" x="223.59" y="337.67" width="9.92" height="28.35"/>
  </g>
  <g id="LWPOLYLINE-2" data-name="LWPOLYLINE">
    <rect class="cls-1" x="623.27" y="190.28" width="9.92" height="28.35"/>
  </g>
  <g id="LWPOLYLINE-3" data-name="LWPOLYLINE">
    <rect class="cls-1" x="623.27" y="133.58" width="9.92" height="28.35"/>
  </g>
  <g id="LWPOLYLINE-4" data-name="LWPOLYLINE">
    <rect class="cls-1" x="556.65" y="167.6" width="9.92" height="28.35"/>
  </g>
  <g id="LWPOLYLINE-5" data-name="LWPOLYLINE">
    <rect class="cls-1" x="556.65" y="224.29" width="9.92" height="28.35"/>
  </g>
  <g id="LWPOLYLINE-6" data-name="LWPOLYLINE">
    <rect class="cls-1" x="490.04" y="201.61" width="9.92" height="28.35"/>
  </g>
  <g id="LWPOLYLINE-7" data-name="LWPOLYLINE">
    <rect class="cls-1" x="490.04" y="258.31" width="9.92" height="28.35"/>
  </g>
  <g id="LWPOLYLINE-8" data-name="LWPOLYLINE">
    <rect class="cls-1" x="423.43" y="235.63" width="9.92" height="28.35"/>
  </g>
  <g id="LWPOLYLINE-9" data-name="LWPOLYLINE">
    <rect class="cls-1" x="423.43" y="292.32" width="9.92" height="28.35"/>
  </g>
  <g id="LWPOLYLINE-10" data-name="LWPOLYLINE">
    <rect class="cls-1" x="356.81" y="269.64" width="9.92" height="28.35"/>
  </g>
  <g id="LWPOLYLINE-11" data-name="LWPOLYLINE">
    <rect class="cls-1" x="290.2" y="360.35" width="9.92" height="28.35"/>
  </g>
  <g id="LWPOLYLINE-12" data-name="LWPOLYLINE">
    <rect class="cls-1" x="23.74" y="99.57" width="9.92" height="28.35"/>
  </g>
  <g id="LWPOLYLINE-13" data-name="LWPOLYLINE">
    <rect class="cls-1" x="23.74" y="212.95" width="9.92" height="28.35"/>
  </g>
  <g id="LWPOLYLINE-14" data-name="LWPOLYLINE">
    <rect class="cls-1" x="290.2" y="303.66" width="9.92" height="28.35"/>
  </g>
  <g id="LWPOLYLINE-15" data-name="LWPOLYLINE">
    <rect class="cls-1" x="356.81" y="326.34" width="9.92" height="28.35"/>
  </g>
  <g id="LWPOLYLINE-16" data-name="LWPOLYLINE">
    <rect class="cls-1" x="223.59" y="394.37" width="9.92" height="28.35"/>
  </g>
  <g id="LWPOLYLINE-17" data-name="LWPOLYLINE">
    <rect class="cls-1" x="156.97" y="428.38" width="9.92" height="28.35"/>
  </g>
  <g id="LWPOLYLINE-18" data-name="LWPOLYLINE">
    <rect class="cls-1" x="90.36" y="405.71" width="9.92" height="28.35"/>
  </g>
  <g id="LWPOLYLINE-19" data-name="LWPOLYLINE">
    <rect class="cls-1" x="90.36" y="462.4" width="9.92" height="28.35"/>
  </g>
  <g id="LWPOLYLINE-20" data-name="LWPOLYLINE">
    <rect class="cls-1" x="689.88" y="156.26" width="9.92" height="28.35"/>
  </g>
  <g id="LWPOLYLINE-21" data-name="LWPOLYLINE">
    <rect class="cls-1" x="689.88" y="42.87" width="9.92" height="28.35"/>
  </g>
  <g id="LWPOLYLINE-22" data-name="LWPOLYLINE">
    <rect class="cls-1" x="23.74" y="439.72" width="9.92" height="28.35"/>
  </g>
  <g id="LWPOLYLINE-23" data-name="LWPOLYLINE">
    <rect class="cls-1" x="23.74" y="326.34" width="9.92" height="28.35"/>
  </g>
  <g id="LWPOLYLINE-24" data-name="LWPOLYLINE">
    <rect class="cls-1" x="156.97" y="371.69" width="9.92" height="28.35"/>
  </g>
  <g id="LWPOLYLINE-25" data-name="LWPOLYLINE">
    <path class="cls-1" d="M65,613.87a28.34,28.34,0,0,1-41.23-25.24V21.7H80.48V43A7.08,7.08,0,0,0,87.57,50h595a7.37,7.37,0,0,0,7.37-7.37v-21h56.69V248.47a28.34,28.34,0,0,1-15.45,25.24Z" transform="translate(-23.43 -21.34)"/>
  </g>
  <g id="LWPOLYLINE-26" data-name="LWPOLYLINE">
    <rect class="cls-1" x="495" y="502.09" width="9.92" height="28.35"/>
  </g>
  <g id="LWPOLYLINE-27" data-name="LWPOLYLINE">
    <rect class="cls-1" x="95.32" y="649.49" width="9.92" height="28.35"/>
  </g>
  <g id="LWPOLYLINE-28" data-name="LWPOLYLINE">
    <rect class="cls-1" x="95.32" y="706.18" width="9.92" height="28.35"/>
  </g>
  <g id="LWPOLYLINE-29" data-name="LWPOLYLINE">
    <rect class="cls-1" x="161.93" y="672.17" width="9.92" height="28.35"/>
  </g>
  <g id="LWPOLYLINE-30" data-name="LWPOLYLINE">
    <rect class="cls-1" x="161.93" y="615.48" width="9.92" height="28.35"/>
  </g>
  <g id="LWPOLYLINE-31" data-name="LWPOLYLINE">
    <rect class="cls-1" x="228.54" y="638.15" width="9.92" height="28.35"/>
  </g>
  <g id="LWPOLYLINE-32" data-name="LWPOLYLINE">
    <rect class="cls-1" x="228.54" y="581.46" width="9.92" height="28.35"/>
  </g>
  <g id="LWPOLYLINE-33" data-name="LWPOLYLINE">
    <rect class="cls-1" x="295.16" y="604.14" width="9.92" height="28.35"/>
  </g>
  <g id="LWPOLYLINE-34" data-name="LWPOLYLINE">
    <rect class="cls-1" x="295.16" y="547.44" width="9.92" height="28.35"/>
  </g>
  <g id="LWPOLYLINE-35" data-name="LWPOLYLINE">
    <rect class="cls-1" x="361.77" y="570.12" width="9.92" height="28.35"/>
  </g>
  <g id="LWPOLYLINE-36" data-name="LWPOLYLINE">
    <rect class="cls-1" x="428.39" y="479.41" width="9.92" height="28.35"/>
  </g>
  <g id="LWPOLYLINE-37" data-name="LWPOLYLINE">
    <rect class="cls-1" x="694.85" y="740.2" width="9.92" height="28.35"/>
  </g>
  <g id="LWPOLYLINE-38" data-name="LWPOLYLINE">
    <rect class="cls-1" x="694.85" y="626.81" width="9.92" height="28.35"/>
  </g>
  <g id="LWPOLYLINE-39" data-name="LWPOLYLINE">
    <rect class="cls-1" x="428.39" y="536.11" width="9.92" height="28.35"/>
  </g>
  <g id="LWPOLYLINE-40" data-name="LWPOLYLINE">
    <rect class="cls-1" x="361.77" y="513.43" width="9.92" height="28.35"/>
  </g>
  <g id="LWPOLYLINE-41" data-name="LWPOLYLINE">
    <rect class="cls-1" x="495" y="445.4" width="9.92" height="28.35"/>
  </g>
  <g id="LWPOLYLINE-42" data-name="LWPOLYLINE">
    <rect class="cls-1" x="561.61" y="411.38" width="9.92" height="28.35"/>
  </g>
  <g id="LWPOLYLINE-43" data-name="LWPOLYLINE">
    <rect class="cls-1" x="628.23" y="434.06" width="9.92" height="28.35"/>
  </g>
  <g id="LWPOLYLINE-44" data-name="LWPOLYLINE">
    <rect class="cls-1" x="628.23" y="377.37" width="9.92" height="28.35"/>
  </g>
  <g id="LWPOLYLINE-45" data-name="LWPOLYLINE">
    <rect class="cls-1" x="28.7" y="683.51" width="9.92" height="28.35"/>
  </g>
  <g id="LWPOLYLINE-46" data-name="LWPOLYLINE">
    <rect class="cls-1" x="28.7" y="796.89" width="9.92" height="28.35"/>
  </g>
  <g id="LWPOLYLINE-47" data-name="LWPOLYLINE">
    <rect class="cls-1" x="694.85" y="400.04" width="9.92" height="28.35"/>
  </g>
  <g id="LWPOLYLINE-48" data-name="LWPOLYLINE">
    <rect class="cls-1" x="694.85" y="513.43" width="9.92" height="28.35"/>
  </g>
  <g id="LWPOLYLINE-49" data-name="LWPOLYLINE">
    <rect class="cls-1" x="561.61" y="468.08" width="9.92" height="28.35"/>
  </g>
  <g id="LWPOLYLINE-50" data-name="LWPOLYLINE">
    <path class="cls-1" d="M710.35,296.93a28.34,28.34,0,0,1,41.23,25.24V889.1H694.89V867.84a7.09,7.09,0,0,0-7.08-7.09h-595a7.37,7.37,0,0,0-7.37,7.37v21H28.75V662.33a28.36,28.36,0,0,1,15.46-25.25Z" transform="translate(-23.43 -21.34)"/>
  </g>
</svg>
